<mxfile host="app.diagrams.net" agent="Mozilla/5.0 (Windows NT 10.0; Win64; x64; rv:130.0) Gecko/20100101 Firefox/130.0" version="24.7.17">
  <diagram name="Page-1" id="fh-_mjizSY4p7zUIqf5i">
    <mxGraphModel dx="1877" dy="605" grid="1" gridSize="10" guides="1" tooltips="1" connect="1" arrows="1" fold="1" page="1" pageScale="1" pageWidth="827" pageHeight="1169" math="0" shadow="0">
      <root>
        <mxCell id="0" />
        <mxCell id="1" parent="0" />
        <mxCell id="lW4gRlZeD6onJWq6aIW8-3" value="Livros" style="rounded=0;whiteSpace=wrap;html=1;verticalAlign=top;fontSize=19;fontColor=#1C6FFF;" vertex="1" parent="1">
          <mxGeometry x="550" y="10" width="410" height="710" as="geometry" />
        </mxCell>
        <mxCell id="lW4gRlZeD6onJWq6aIW8-2" value="Utilizadores" style="rounded=0;whiteSpace=wrap;html=1;verticalAlign=top;fontSize=19;fontColor=#FF5B14;" vertex="1" parent="1">
          <mxGeometry x="-30" y="20" width="410" height="710" as="geometry" />
        </mxCell>
        <mxCell id="lD7EmsO0Gy3YF0Vnf6TW-1" value="Utilizador logado" style="swimlane;fontStyle=0;childLayout=stackLayout;horizontal=1;startSize=30;horizontalStack=0;resizeParent=1;resizeParentMax=0;resizeLast=0;collapsible=1;marginBottom=0;whiteSpace=wrap;html=1;" parent="1" vertex="1">
          <mxGeometry x="170" y="75" width="140" height="210" as="geometry" />
        </mxCell>
        <mxCell id="lD7EmsO0Gy3YF0Vnf6TW-2" value="ID" style="text;strokeColor=none;fillColor=none;align=left;verticalAlign=middle;spacingLeft=4;spacingRight=4;overflow=hidden;points=[[0,0.5],[1,0.5]];portConstraint=eastwest;rotatable=0;whiteSpace=wrap;html=1;" parent="lD7EmsO0Gy3YF0Vnf6TW-1" vertex="1">
          <mxGeometry y="30" width="140" height="30" as="geometry" />
        </mxCell>
        <mxCell id="lD7EmsO0Gy3YF0Vnf6TW-3" value="&lt;div&gt;Nome&lt;/div&gt;" style="text;strokeColor=none;fillColor=none;align=left;verticalAlign=middle;spacingLeft=4;spacingRight=4;overflow=hidden;points=[[0,0.5],[1,0.5]];portConstraint=eastwest;rotatable=0;whiteSpace=wrap;html=1;" parent="lD7EmsO0Gy3YF0Vnf6TW-1" vertex="1">
          <mxGeometry y="60" width="140" height="30" as="geometry" />
        </mxCell>
        <mxCell id="lD7EmsO0Gy3YF0Vnf6TW-4" value="Email" style="text;strokeColor=none;fillColor=none;align=left;verticalAlign=middle;spacingLeft=4;spacingRight=4;overflow=hidden;points=[[0,0.5],[1,0.5]];portConstraint=eastwest;rotatable=0;whiteSpace=wrap;html=1;" parent="lD7EmsO0Gy3YF0Vnf6TW-1" vertex="1">
          <mxGeometry y="90" width="140" height="30" as="geometry" />
        </mxCell>
        <mxCell id="lD7EmsO0Gy3YF0Vnf6TW-7" value="Senha" style="text;strokeColor=none;fillColor=none;align=left;verticalAlign=middle;spacingLeft=4;spacingRight=4;overflow=hidden;points=[[0,0.5],[1,0.5]];portConstraint=eastwest;rotatable=0;whiteSpace=wrap;html=1;" parent="lD7EmsO0Gy3YF0Vnf6TW-1" vertex="1">
          <mxGeometry y="120" width="140" height="30" as="geometry" />
        </mxCell>
        <mxCell id="lD7EmsO0Gy3YF0Vnf6TW-8" value="Tipo" style="text;strokeColor=none;fillColor=none;align=left;verticalAlign=middle;spacingLeft=4;spacingRight=4;overflow=hidden;points=[[0,0.5],[1,0.5]];portConstraint=eastwest;rotatable=0;whiteSpace=wrap;html=1;" parent="lD7EmsO0Gy3YF0Vnf6TW-1" vertex="1">
          <mxGeometry y="150" width="140" height="30" as="geometry" />
        </mxCell>
        <mxCell id="lD7EmsO0Gy3YF0Vnf6TW-6" value="Data de registo" style="text;strokeColor=none;fillColor=none;align=left;verticalAlign=middle;spacingLeft=4;spacingRight=4;overflow=hidden;points=[[0,0.5],[1,0.5]];portConstraint=eastwest;rotatable=0;whiteSpace=wrap;html=1;" parent="lD7EmsO0Gy3YF0Vnf6TW-1" vertex="1">
          <mxGeometry y="180" width="140" height="30" as="geometry" />
        </mxCell>
        <mxCell id="lD7EmsO0Gy3YF0Vnf6TW-9" value="Livro" style="swimlane;fontStyle=0;childLayout=stackLayout;horizontal=1;startSize=30;horizontalStack=0;resizeParent=1;resizeParentMax=0;resizeLast=0;collapsible=1;marginBottom=0;whiteSpace=wrap;html=1;" parent="1" vertex="1">
          <mxGeometry x="570" y="60" width="140" height="300" as="geometry" />
        </mxCell>
        <mxCell id="lD7EmsO0Gy3YF0Vnf6TW-10" value="ID" style="text;strokeColor=none;fillColor=none;align=left;verticalAlign=middle;spacingLeft=4;spacingRight=4;overflow=hidden;points=[[0,0.5],[1,0.5]];portConstraint=eastwest;rotatable=0;whiteSpace=wrap;html=1;" parent="lD7EmsO0Gy3YF0Vnf6TW-9" vertex="1">
          <mxGeometry y="30" width="140" height="30" as="geometry" />
        </mxCell>
        <mxCell id="lD7EmsO0Gy3YF0Vnf6TW-11" value="Título" style="text;strokeColor=none;fillColor=none;align=left;verticalAlign=middle;spacingLeft=4;spacingRight=4;overflow=hidden;points=[[0,0.5],[1,0.5]];portConstraint=eastwest;rotatable=0;whiteSpace=wrap;html=1;" parent="lD7EmsO0Gy3YF0Vnf6TW-9" vertex="1">
          <mxGeometry y="60" width="140" height="30" as="geometry" />
        </mxCell>
        <mxCell id="lD7EmsO0Gy3YF0Vnf6TW-12" value="Capa (imagem)" style="text;strokeColor=none;fillColor=none;align=left;verticalAlign=middle;spacingLeft=4;spacingRight=4;overflow=hidden;points=[[0,0.5],[1,0.5]];portConstraint=eastwest;rotatable=0;whiteSpace=wrap;html=1;" parent="lD7EmsO0Gy3YF0Vnf6TW-9" vertex="1">
          <mxGeometry y="90" width="140" height="30" as="geometry" />
        </mxCell>
        <mxCell id="lD7EmsO0Gy3YF0Vnf6TW-13" value="Descrição" style="text;strokeColor=none;fillColor=none;align=left;verticalAlign=middle;spacingLeft=4;spacingRight=4;overflow=hidden;points=[[0,0.5],[1,0.5]];portConstraint=eastwest;rotatable=0;whiteSpace=wrap;html=1;" parent="lD7EmsO0Gy3YF0Vnf6TW-9" vertex="1">
          <mxGeometry y="120" width="140" height="30" as="geometry" />
        </mxCell>
        <mxCell id="lD7EmsO0Gy3YF0Vnf6TW-14" value="Faixa Etária" style="text;strokeColor=none;fillColor=none;align=left;verticalAlign=middle;spacingLeft=4;spacingRight=4;overflow=hidden;points=[[0,0.5],[1,0.5]];portConstraint=eastwest;rotatable=0;whiteSpace=wrap;html=1;" parent="lD7EmsO0Gy3YF0Vnf6TW-9" vertex="1">
          <mxGeometry y="150" width="140" height="30" as="geometry" />
        </mxCell>
        <mxCell id="lD7EmsO0Gy3YF0Vnf6TW-15" value="Tags" style="text;strokeColor=none;fillColor=none;align=left;verticalAlign=middle;spacingLeft=4;spacingRight=4;overflow=hidden;points=[[0,0.5],[1,0.5]];portConstraint=eastwest;rotatable=0;whiteSpace=wrap;html=1;" parent="lD7EmsO0Gy3YF0Vnf6TW-9" vertex="1">
          <mxGeometry y="180" width="140" height="30" as="geometry" />
        </mxCell>
        <mxCell id="lD7EmsO0Gy3YF0Vnf6TW-45" value="Rating" style="text;strokeColor=none;fillColor=none;align=left;verticalAlign=middle;spacingLeft=4;spacingRight=4;overflow=hidden;points=[[0,0.5],[1,0.5]];portConstraint=eastwest;rotatable=0;whiteSpace=wrap;html=1;" parent="lD7EmsO0Gy3YF0Vnf6TW-9" vertex="1">
          <mxGeometry y="210" width="140" height="30" as="geometry" />
        </mxCell>
        <mxCell id="lD7EmsO0Gy3YF0Vnf6TW-46" value="Páginas " style="text;strokeColor=none;fillColor=none;align=left;verticalAlign=middle;spacingLeft=4;spacingRight=4;overflow=hidden;points=[[0,0.5],[1,0.5]];portConstraint=eastwest;rotatable=0;whiteSpace=wrap;html=1;" parent="lD7EmsO0Gy3YF0Vnf6TW-9" vertex="1">
          <mxGeometry y="240" width="140" height="30" as="geometry" />
        </mxCell>
        <mxCell id="lD7EmsO0Gy3YF0Vnf6TW-44" value="Atividades a decorrer" style="text;strokeColor=none;fillColor=none;align=left;verticalAlign=middle;spacingLeft=4;spacingRight=4;overflow=hidden;points=[[0,0.5],[1,0.5]];portConstraint=eastwest;rotatable=0;whiteSpace=wrap;html=1;" parent="lD7EmsO0Gy3YF0Vnf6TW-9" vertex="1">
          <mxGeometry y="270" width="140" height="30" as="geometry" />
        </mxCell>
        <mxCell id="lD7EmsO0Gy3YF0Vnf6TW-16" value="Autor" style="swimlane;fontStyle=0;childLayout=stackLayout;horizontal=1;startSize=30;horizontalStack=0;resizeParent=1;resizeParentMax=0;resizeLast=0;collapsible=1;marginBottom=0;whiteSpace=wrap;html=1;" parent="1" vertex="1">
          <mxGeometry x="805" y="47" width="140" height="180" as="geometry" />
        </mxCell>
        <mxCell id="lD7EmsO0Gy3YF0Vnf6TW-17" value="ID" style="text;strokeColor=none;fillColor=none;align=left;verticalAlign=middle;spacingLeft=4;spacingRight=4;overflow=hidden;points=[[0,0.5],[1,0.5]];portConstraint=eastwest;rotatable=0;whiteSpace=wrap;html=1;" parent="lD7EmsO0Gy3YF0Vnf6TW-16" vertex="1">
          <mxGeometry y="30" width="140" height="30" as="geometry" />
        </mxCell>
        <mxCell id="lD7EmsO0Gy3YF0Vnf6TW-18" value="&lt;div&gt;Nome&lt;/div&gt;" style="text;strokeColor=none;fillColor=none;align=left;verticalAlign=middle;spacingLeft=4;spacingRight=4;overflow=hidden;points=[[0,0.5],[1,0.5]];portConstraint=eastwest;rotatable=0;whiteSpace=wrap;html=1;" parent="lD7EmsO0Gy3YF0Vnf6TW-16" vertex="1">
          <mxGeometry y="60" width="140" height="30" as="geometry" />
        </mxCell>
        <mxCell id="lD7EmsO0Gy3YF0Vnf6TW-19" value="Fotografia" style="text;strokeColor=none;fillColor=none;align=left;verticalAlign=middle;spacingLeft=4;spacingRight=4;overflow=hidden;points=[[0,0.5],[1,0.5]];portConstraint=eastwest;rotatable=0;whiteSpace=wrap;html=1;" parent="lD7EmsO0Gy3YF0Vnf6TW-16" vertex="1">
          <mxGeometry y="90" width="140" height="30" as="geometry" />
        </mxCell>
        <mxCell id="lD7EmsO0Gy3YF0Vnf6TW-20" value="Nacionalidade" style="text;strokeColor=none;fillColor=none;align=left;verticalAlign=middle;spacingLeft=4;spacingRight=4;overflow=hidden;points=[[0,0.5],[1,0.5]];portConstraint=eastwest;rotatable=0;whiteSpace=wrap;html=1;" parent="lD7EmsO0Gy3YF0Vnf6TW-16" vertex="1">
          <mxGeometry y="120" width="140" height="30" as="geometry" />
        </mxCell>
        <mxCell id="lD7EmsO0Gy3YF0Vnf6TW-21" value="Descrição" style="text;strokeColor=none;fillColor=none;align=left;verticalAlign=middle;spacingLeft=4;spacingRight=4;overflow=hidden;points=[[0,0.5],[1,0.5]];portConstraint=eastwest;rotatable=0;whiteSpace=wrap;html=1;" parent="lD7EmsO0Gy3YF0Vnf6TW-16" vertex="1">
          <mxGeometry y="150" width="140" height="30" as="geometry" />
        </mxCell>
        <mxCell id="lD7EmsO0Gy3YF0Vnf6TW-23" value="Atividade" style="swimlane;fontStyle=0;childLayout=stackLayout;horizontal=1;startSize=30;horizontalStack=0;resizeParent=1;resizeParentMax=0;resizeLast=0;collapsible=1;marginBottom=0;whiteSpace=wrap;html=1;" parent="1" vertex="1">
          <mxGeometry x="805" y="295" width="140" height="150" as="geometry" />
        </mxCell>
        <mxCell id="lD7EmsO0Gy3YF0Vnf6TW-24" value="ID" style="text;strokeColor=none;fillColor=none;align=left;verticalAlign=middle;spacingLeft=4;spacingRight=4;overflow=hidden;points=[[0,0.5],[1,0.5]];portConstraint=eastwest;rotatable=0;whiteSpace=wrap;html=1;" parent="lD7EmsO0Gy3YF0Vnf6TW-23" vertex="1">
          <mxGeometry y="30" width="140" height="30" as="geometry" />
        </mxCell>
        <mxCell id="lD7EmsO0Gy3YF0Vnf6TW-25" value="Tipo (desenho, exploração de temas, quiz)" style="text;strokeColor=none;fillColor=none;align=left;verticalAlign=middle;spacingLeft=4;spacingRight=4;overflow=hidden;points=[[0,0.5],[1,0.5]];portConstraint=eastwest;rotatable=0;whiteSpace=wrap;html=1;" parent="lD7EmsO0Gy3YF0Vnf6TW-23" vertex="1">
          <mxGeometry y="60" width="140" height="30" as="geometry" />
        </mxCell>
        <mxCell id="lD7EmsO0Gy3YF0Vnf6TW-26" value="Descrição" style="text;strokeColor=none;fillColor=none;align=left;verticalAlign=middle;spacingLeft=4;spacingRight=4;overflow=hidden;points=[[0,0.5],[1,0.5]];portConstraint=eastwest;rotatable=0;whiteSpace=wrap;html=1;" parent="lD7EmsO0Gy3YF0Vnf6TW-23" vertex="1">
          <mxGeometry y="90" width="140" height="30" as="geometry" />
        </mxCell>
        <mxCell id="lD7EmsO0Gy3YF0Vnf6TW-28" value="Livro associado" style="text;strokeColor=none;fillColor=none;align=left;verticalAlign=middle;spacingLeft=4;spacingRight=4;overflow=hidden;points=[[0,0.5],[1,0.5]];portConstraint=eastwest;rotatable=0;whiteSpace=wrap;html=1;" parent="lD7EmsO0Gy3YF0Vnf6TW-23" vertex="1">
          <mxGeometry y="120" width="140" height="30" as="geometry" />
        </mxCell>
        <mxCell id="lD7EmsO0Gy3YF0Vnf6TW-30" value="Perfil" style="swimlane;fontStyle=0;childLayout=stackLayout;horizontal=1;startSize=30;horizontalStack=0;resizeParent=1;resizeParentMax=0;resizeLast=0;collapsible=1;marginBottom=0;whiteSpace=wrap;html=1;" parent="1" vertex="1">
          <mxGeometry x="-20" y="370" width="140" height="150" as="geometry" />
        </mxCell>
        <mxCell id="lD7EmsO0Gy3YF0Vnf6TW-31" value="ID" style="text;strokeColor=none;fillColor=none;align=left;verticalAlign=middle;spacingLeft=4;spacingRight=4;overflow=hidden;points=[[0,0.5],[1,0.5]];portConstraint=eastwest;rotatable=0;whiteSpace=wrap;html=1;" parent="lD7EmsO0Gy3YF0Vnf6TW-30" vertex="1">
          <mxGeometry y="30" width="140" height="30" as="geometry" />
        </mxCell>
        <mxCell id="lD7EmsO0Gy3YF0Vnf6TW-32" value="Utilizador" style="text;strokeColor=none;fillColor=none;align=left;verticalAlign=middle;spacingLeft=4;spacingRight=4;overflow=hidden;points=[[0,0.5],[1,0.5]];portConstraint=eastwest;rotatable=0;whiteSpace=wrap;html=1;" parent="lD7EmsO0Gy3YF0Vnf6TW-30" vertex="1">
          <mxGeometry y="60" width="140" height="30" as="geometry" />
        </mxCell>
        <mxCell id="lD7EmsO0Gy3YF0Vnf6TW-34" value="Livros Lidos" style="text;strokeColor=none;fillColor=none;align=left;verticalAlign=middle;spacingLeft=4;spacingRight=4;overflow=hidden;points=[[0,0.5],[1,0.5]];portConstraint=eastwest;rotatable=0;whiteSpace=wrap;html=1;" parent="lD7EmsO0Gy3YF0Vnf6TW-30" vertex="1">
          <mxGeometry y="90" width="140" height="30" as="geometry" />
        </mxCell>
        <mxCell id="lD7EmsO0Gy3YF0Vnf6TW-35" value="&lt;div&gt;Livros em Exploração&lt;/div&gt;" style="text;strokeColor=none;fillColor=none;align=left;verticalAlign=middle;spacingLeft=4;spacingRight=4;overflow=hidden;points=[[0,0.5],[1,0.5]];portConstraint=eastwest;rotatable=0;whiteSpace=wrap;html=1;" parent="lD7EmsO0Gy3YF0Vnf6TW-30" vertex="1">
          <mxGeometry y="120" width="140" height="30" as="geometry" />
        </mxCell>
        <mxCell id="lD7EmsO0Gy3YF0Vnf6TW-37" value="Rating" style="swimlane;fontStyle=0;childLayout=stackLayout;horizontal=1;startSize=30;horizontalStack=0;resizeParent=1;resizeParentMax=0;resizeLast=0;collapsible=1;marginBottom=0;whiteSpace=wrap;html=1;" parent="1" vertex="1">
          <mxGeometry x="70" y="560" width="140" height="150" as="geometry" />
        </mxCell>
        <mxCell id="lD7EmsO0Gy3YF0Vnf6TW-38" value="ID" style="text;strokeColor=none;fillColor=none;align=left;verticalAlign=middle;spacingLeft=4;spacingRight=4;overflow=hidden;points=[[0,0.5],[1,0.5]];portConstraint=eastwest;rotatable=0;whiteSpace=wrap;html=1;" parent="lD7EmsO0Gy3YF0Vnf6TW-37" vertex="1">
          <mxGeometry y="30" width="140" height="30" as="geometry" />
        </mxCell>
        <mxCell id="lD7EmsO0Gy3YF0Vnf6TW-39" value="Valor" style="text;strokeColor=none;fillColor=none;align=left;verticalAlign=middle;spacingLeft=4;spacingRight=4;overflow=hidden;points=[[0,0.5],[1,0.5]];portConstraint=eastwest;rotatable=0;whiteSpace=wrap;html=1;" parent="lD7EmsO0Gy3YF0Vnf6TW-37" vertex="1">
          <mxGeometry y="60" width="140" height="30" as="geometry" />
        </mxCell>
        <mxCell id="lD7EmsO0Gy3YF0Vnf6TW-40" value="Utilizador" style="text;strokeColor=none;fillColor=none;align=left;verticalAlign=middle;spacingLeft=4;spacingRight=4;overflow=hidden;points=[[0,0.5],[1,0.5]];portConstraint=eastwest;rotatable=0;whiteSpace=wrap;html=1;" parent="lD7EmsO0Gy3YF0Vnf6TW-37" vertex="1">
          <mxGeometry y="90" width="140" height="30" as="geometry" />
        </mxCell>
        <mxCell id="lD7EmsO0Gy3YF0Vnf6TW-41" value="Livro" style="text;strokeColor=none;fillColor=none;align=left;verticalAlign=middle;spacingLeft=4;spacingRight=4;overflow=hidden;points=[[0,0.5],[1,0.5]];portConstraint=eastwest;rotatable=0;whiteSpace=wrap;html=1;" parent="lD7EmsO0Gy3YF0Vnf6TW-37" vertex="1">
          <mxGeometry y="120" width="140" height="30" as="geometry" />
        </mxCell>
        <mxCell id="lD7EmsO0Gy3YF0Vnf6TW-47" value="" style="endArrow=classic;html=1;rounded=0;" parent="1" source="lD7EmsO0Gy3YF0Vnf6TW-1" target="lD7EmsO0Gy3YF0Vnf6TW-9" edge="1">
          <mxGeometry width="50" height="50" relative="1" as="geometry">
            <mxPoint x="370" y="320" as="sourcePoint" />
            <mxPoint x="420" y="270" as="targetPoint" />
          </mxGeometry>
        </mxCell>
        <mxCell id="lD7EmsO0Gy3YF0Vnf6TW-48" value="Pode ler" style="edgeLabel;html=1;align=center;verticalAlign=middle;resizable=0;points=[];" parent="lD7EmsO0Gy3YF0Vnf6TW-47" vertex="1" connectable="0">
          <mxGeometry x="0.0948" y="-1" relative="1" as="geometry">
            <mxPoint x="-4" y="-11" as="offset" />
          </mxGeometry>
        </mxCell>
        <mxCell id="lD7EmsO0Gy3YF0Vnf6TW-49" value="1" style="edgeLabel;html=1;align=center;verticalAlign=middle;resizable=0;points=[];" parent="lD7EmsO0Gy3YF0Vnf6TW-47" vertex="1" connectable="0">
          <mxGeometry x="-0.7328" y="2" relative="1" as="geometry">
            <mxPoint x="-11" y="-7" as="offset" />
          </mxGeometry>
        </mxCell>
        <mxCell id="lD7EmsO0Gy3YF0Vnf6TW-50" value="n" style="edgeLabel;html=1;align=center;verticalAlign=middle;resizable=0;points=[];" parent="lD7EmsO0Gy3YF0Vnf6TW-47" vertex="1" connectable="0">
          <mxGeometry x="0.6771" relative="1" as="geometry">
            <mxPoint x="9" y="-11" as="offset" />
          </mxGeometry>
        </mxCell>
        <mxCell id="lD7EmsO0Gy3YF0Vnf6TW-51" value="" style="endArrow=classic;html=1;rounded=0;" parent="1" source="lD7EmsO0Gy3YF0Vnf6TW-1" target="lD7EmsO0Gy3YF0Vnf6TW-30" edge="1">
          <mxGeometry width="50" height="50" relative="1" as="geometry">
            <mxPoint x="130" y="190" as="sourcePoint" />
            <mxPoint x="255" y="190" as="targetPoint" />
          </mxGeometry>
        </mxCell>
        <mxCell id="lD7EmsO0Gy3YF0Vnf6TW-52" value="Pode ter" style="edgeLabel;html=1;align=center;verticalAlign=middle;resizable=0;points=[];" parent="lD7EmsO0Gy3YF0Vnf6TW-51" vertex="1" connectable="0">
          <mxGeometry x="0.0948" y="-1" relative="1" as="geometry">
            <mxPoint x="-24" y="-11" as="offset" />
          </mxGeometry>
        </mxCell>
        <mxCell id="lD7EmsO0Gy3YF0Vnf6TW-53" value="1" style="edgeLabel;html=1;align=center;verticalAlign=middle;resizable=0;points=[];" parent="lD7EmsO0Gy3YF0Vnf6TW-51" vertex="1" connectable="0">
          <mxGeometry x="-0.7328" y="2" relative="1" as="geometry">
            <mxPoint x="7" y="3" as="offset" />
          </mxGeometry>
        </mxCell>
        <mxCell id="lD7EmsO0Gy3YF0Vnf6TW-54" value="1" style="edgeLabel;html=1;align=center;verticalAlign=middle;resizable=0;points=[];" parent="lD7EmsO0Gy3YF0Vnf6TW-51" vertex="1" connectable="0">
          <mxGeometry x="0.6771" relative="1" as="geometry">
            <mxPoint x="12" y="1" as="offset" />
          </mxGeometry>
        </mxCell>
        <mxCell id="lD7EmsO0Gy3YF0Vnf6TW-55" value="Favorito" style="swimlane;fontStyle=0;childLayout=stackLayout;horizontal=1;startSize=30;horizontalStack=0;resizeParent=1;resizeParentMax=0;resizeLast=0;collapsible=1;marginBottom=0;whiteSpace=wrap;html=1;" parent="1" vertex="1">
          <mxGeometry x="225" y="385" width="140" height="120" as="geometry" />
        </mxCell>
        <mxCell id="lD7EmsO0Gy3YF0Vnf6TW-56" value="ID" style="text;strokeColor=none;fillColor=none;align=left;verticalAlign=middle;spacingLeft=4;spacingRight=4;overflow=hidden;points=[[0,0.5],[1,0.5]];portConstraint=eastwest;rotatable=0;whiteSpace=wrap;html=1;" parent="lD7EmsO0Gy3YF0Vnf6TW-55" vertex="1">
          <mxGeometry y="30" width="140" height="30" as="geometry" />
        </mxCell>
        <mxCell id="lD7EmsO0Gy3YF0Vnf6TW-58" value="Utilizador" style="text;strokeColor=none;fillColor=none;align=left;verticalAlign=middle;spacingLeft=4;spacingRight=4;overflow=hidden;points=[[0,0.5],[1,0.5]];portConstraint=eastwest;rotatable=0;whiteSpace=wrap;html=1;" parent="lD7EmsO0Gy3YF0Vnf6TW-55" vertex="1">
          <mxGeometry y="60" width="140" height="30" as="geometry" />
        </mxCell>
        <mxCell id="lD7EmsO0Gy3YF0Vnf6TW-59" value="Livro" style="text;strokeColor=none;fillColor=none;align=left;verticalAlign=middle;spacingLeft=4;spacingRight=4;overflow=hidden;points=[[0,0.5],[1,0.5]];portConstraint=eastwest;rotatable=0;whiteSpace=wrap;html=1;" parent="lD7EmsO0Gy3YF0Vnf6TW-55" vertex="1">
          <mxGeometry y="90" width="140" height="30" as="geometry" />
        </mxCell>
        <mxCell id="lD7EmsO0Gy3YF0Vnf6TW-60" value="" style="endArrow=classic;html=1;rounded=0;" parent="1" source="lD7EmsO0Gy3YF0Vnf6TW-30" target="lD7EmsO0Gy3YF0Vnf6TW-55" edge="1">
          <mxGeometry width="50" height="50" relative="1" as="geometry">
            <mxPoint x="60" y="295" as="sourcePoint" />
            <mxPoint x="60" y="380" as="targetPoint" />
          </mxGeometry>
        </mxCell>
        <mxCell id="lD7EmsO0Gy3YF0Vnf6TW-61" value="Pode ter" style="edgeLabel;html=1;align=center;verticalAlign=middle;resizable=0;points=[];" parent="lD7EmsO0Gy3YF0Vnf6TW-60" vertex="1" connectable="0">
          <mxGeometry x="0.0948" y="-1" relative="1" as="geometry">
            <mxPoint x="-18" y="-11" as="offset" />
          </mxGeometry>
        </mxCell>
        <mxCell id="lD7EmsO0Gy3YF0Vnf6TW-62" value="1" style="edgeLabel;html=1;align=center;verticalAlign=middle;resizable=0;points=[];" parent="lD7EmsO0Gy3YF0Vnf6TW-60" vertex="1" connectable="0">
          <mxGeometry x="-0.7328" y="2" relative="1" as="geometry">
            <mxPoint x="-9" y="-9" as="offset" />
          </mxGeometry>
        </mxCell>
        <mxCell id="lD7EmsO0Gy3YF0Vnf6TW-63" value="n" style="edgeLabel;html=1;align=center;verticalAlign=middle;resizable=0;points=[];" parent="lD7EmsO0Gy3YF0Vnf6TW-60" vertex="1" connectable="0">
          <mxGeometry x="0.6771" relative="1" as="geometry">
            <mxPoint x="7" y="-12" as="offset" />
          </mxGeometry>
        </mxCell>
        <mxCell id="lD7EmsO0Gy3YF0Vnf6TW-64" value="" style="endArrow=classic;html=1;rounded=0;" parent="1" source="lD7EmsO0Gy3YF0Vnf6TW-9" target="lD7EmsO0Gy3YF0Vnf6TW-16" edge="1">
          <mxGeometry width="50" height="50" relative="1" as="geometry">
            <mxPoint x="600" y="110" as="sourcePoint" />
            <mxPoint x="725" y="110" as="targetPoint" />
          </mxGeometry>
        </mxCell>
        <mxCell id="lD7EmsO0Gy3YF0Vnf6TW-65" value="Pode ter" style="edgeLabel;html=1;align=center;verticalAlign=middle;resizable=0;points=[];rotation=-15;" parent="lD7EmsO0Gy3YF0Vnf6TW-64" vertex="1" connectable="0">
          <mxGeometry x="0.0948" y="-1" relative="1" as="geometry">
            <mxPoint x="-4" y="-11" as="offset" />
          </mxGeometry>
        </mxCell>
        <mxCell id="lD7EmsO0Gy3YF0Vnf6TW-66" value="1" style="edgeLabel;html=1;align=center;verticalAlign=middle;resizable=0;points=[];" parent="lD7EmsO0Gy3YF0Vnf6TW-64" vertex="1" connectable="0">
          <mxGeometry x="-0.7328" y="2" relative="1" as="geometry">
            <mxPoint x="-6" y="-10" as="offset" />
          </mxGeometry>
        </mxCell>
        <mxCell id="lD7EmsO0Gy3YF0Vnf6TW-67" value="n" style="edgeLabel;html=1;align=center;verticalAlign=middle;resizable=0;points=[];" parent="lD7EmsO0Gy3YF0Vnf6TW-64" vertex="1" connectable="0">
          <mxGeometry x="0.6771" relative="1" as="geometry">
            <mxPoint x="4" y="-17" as="offset" />
          </mxGeometry>
        </mxCell>
        <mxCell id="lD7EmsO0Gy3YF0Vnf6TW-68" value="" style="endArrow=classic;html=1;rounded=0;" parent="1" source="lD7EmsO0Gy3YF0Vnf6TW-9" target="lD7EmsO0Gy3YF0Vnf6TW-23" edge="1">
          <mxGeometry width="50" height="50" relative="1" as="geometry">
            <mxPoint x="565" y="190" as="sourcePoint" />
            <mxPoint x="690" y="190" as="targetPoint" />
          </mxGeometry>
        </mxCell>
        <mxCell id="lD7EmsO0Gy3YF0Vnf6TW-69" value="Pode ter" style="edgeLabel;html=1;align=center;verticalAlign=middle;resizable=0;points=[];rotation=32;" parent="lD7EmsO0Gy3YF0Vnf6TW-68" vertex="1" connectable="0">
          <mxGeometry x="0.0948" y="-1" relative="1" as="geometry">
            <mxPoint x="-2" y="-18" as="offset" />
          </mxGeometry>
        </mxCell>
        <mxCell id="lD7EmsO0Gy3YF0Vnf6TW-70" value="1" style="edgeLabel;html=1;align=center;verticalAlign=middle;resizable=0;points=[];" parent="lD7EmsO0Gy3YF0Vnf6TW-68" vertex="1" connectable="0">
          <mxGeometry x="-0.7328" y="2" relative="1" as="geometry">
            <mxPoint x="-5" y="-14" as="offset" />
          </mxGeometry>
        </mxCell>
        <mxCell id="lD7EmsO0Gy3YF0Vnf6TW-71" value="n" style="edgeLabel;html=1;align=center;verticalAlign=middle;resizable=0;points=[];" parent="lD7EmsO0Gy3YF0Vnf6TW-68" vertex="1" connectable="0">
          <mxGeometry x="0.6771" relative="1" as="geometry">
            <mxPoint x="7" y="-11" as="offset" />
          </mxGeometry>
        </mxCell>
        <mxCell id="lD7EmsO0Gy3YF0Vnf6TW-72" value="" style="endArrow=classic;html=1;rounded=0;exitX=0;exitY=0.5;exitDx=0;exitDy=0;entryX=1.012;entryY=0.657;entryDx=0;entryDy=0;entryPerimeter=0;" parent="1" source="lD7EmsO0Gy3YF0Vnf6TW-18" target="lD7EmsO0Gy3YF0Vnf6TW-11" edge="1">
          <mxGeometry width="50" height="50" relative="1" as="geometry">
            <mxPoint x="650" y="98.78723404255317" as="sourcePoint" />
            <mxPoint x="555" y="120.21276595744678" as="targetPoint" />
          </mxGeometry>
        </mxCell>
        <mxCell id="lD7EmsO0Gy3YF0Vnf6TW-73" value="Pode ter" style="edgeLabel;html=1;align=center;verticalAlign=middle;resizable=0;points=[];rotation=5;" parent="lD7EmsO0Gy3YF0Vnf6TW-72" vertex="1" connectable="0">
          <mxGeometry x="0.0948" y="-1" relative="1" as="geometry">
            <mxPoint x="3" y="-11" as="offset" />
          </mxGeometry>
        </mxCell>
        <mxCell id="lD7EmsO0Gy3YF0Vnf6TW-74" value="1" style="edgeLabel;html=1;align=center;verticalAlign=middle;resizable=0;points=[];" parent="lD7EmsO0Gy3YF0Vnf6TW-72" vertex="1" connectable="0">
          <mxGeometry x="-0.7328" y="2" relative="1" as="geometry">
            <mxPoint x="4" y="-12" as="offset" />
          </mxGeometry>
        </mxCell>
        <mxCell id="lD7EmsO0Gy3YF0Vnf6TW-75" value="n" style="edgeLabel;html=1;align=center;verticalAlign=middle;resizable=0;points=[];" parent="lD7EmsO0Gy3YF0Vnf6TW-72" vertex="1" connectable="0">
          <mxGeometry x="0.6771" relative="1" as="geometry">
            <mxPoint x="-10" y="-13" as="offset" />
          </mxGeometry>
        </mxCell>
        <mxCell id="lD7EmsO0Gy3YF0Vnf6TW-76" value="" style="endArrow=classic;html=1;rounded=0;entryX=0.818;entryY=0.03;entryDx=0;entryDy=0;entryPerimeter=0;" parent="1" source="lD7EmsO0Gy3YF0Vnf6TW-30" target="lD7EmsO0Gy3YF0Vnf6TW-37" edge="1">
          <mxGeometry width="50" height="50" relative="1" as="geometry">
            <mxPoint x="130" y="455" as="sourcePoint" />
            <mxPoint x="255" y="455" as="targetPoint" />
          </mxGeometry>
        </mxCell>
        <mxCell id="lD7EmsO0Gy3YF0Vnf6TW-77" value="Pode ter" style="edgeLabel;html=1;align=center;verticalAlign=middle;resizable=0;points=[];" parent="lD7EmsO0Gy3YF0Vnf6TW-76" vertex="1" connectable="0">
          <mxGeometry x="0.0948" y="-1" relative="1" as="geometry">
            <mxPoint x="9" y="-18" as="offset" />
          </mxGeometry>
        </mxCell>
        <mxCell id="lD7EmsO0Gy3YF0Vnf6TW-78" value="1" style="edgeLabel;html=1;align=center;verticalAlign=middle;resizable=0;points=[];" parent="lD7EmsO0Gy3YF0Vnf6TW-76" vertex="1" connectable="0">
          <mxGeometry x="-0.7328" y="2" relative="1" as="geometry">
            <mxPoint x="-5" y="-14" as="offset" />
          </mxGeometry>
        </mxCell>
        <mxCell id="lD7EmsO0Gy3YF0Vnf6TW-79" value="n" style="edgeLabel;html=1;align=center;verticalAlign=middle;resizable=0;points=[];" parent="lD7EmsO0Gy3YF0Vnf6TW-76" vertex="1" connectable="0">
          <mxGeometry x="0.6771" relative="1" as="geometry">
            <mxPoint x="10" y="-7" as="offset" />
          </mxGeometry>
        </mxCell>
      </root>
    </mxGraphModel>
  </diagram>
</mxfile>
